<svg xmlns="http://www.w3.org/2000/svg" viewBox="0 0 64 64" role="img" aria-label="Team AI Gateway">
  <rect width="64" height="64" rx="16" fill="#fff8ed"/>
  <path d="M16 29.5C16 20.9 23.2 14 32.1 14h.9C41.3 14.5 48 21.2 48 29.4v.7C48 38.9 40.7 46 31.8 46h-7.1l-7.4 5.1 1.8-8.2A15.8 15.8 0 0 1 16 29.5Z" fill="#c96442"/>
  <path d="M25.2 35.8 31 20.6h3.2L40 35.8h-3.4l-1.1-3.1h-5.9l-1.1 3.1h-3.3Zm5.2-5.8h4.2l-2.1-6.1-2.1 6.1Z" fill="#fffdf7"/>
  <path d="M41.1 21.1h3.1v14.7h-3.1V21.1Z" fill="#fffdf7"/>
  <path d="M19.3 18.1 18 14.6l-3.5-1.3 3.5-1.3 1.3-3.5 1.3 3.5 3.5 1.3-3.5 1.3-1.3 3.5Z" fill="#6f8f58"/>
</svg>
